<svg width="26" height="24" viewBox="0 0 26 24" fill="none" xmlns="http://www.w3.org/2000/svg">
<path d="M8.87371 14.963H6.12271C6.05883 15.2757 6.02691 15.5309 6.02691 15.7284C6.02691 16.2057 6.15463 16.6091 6.41011 16.9383C6.94837 17.646 8.06157 18 9.7496 18C11.0544 18 12.1447 17.7695 13.0206 17.3085C13.9786 16.8065 14.5672 16.0782 14.7862 15.1234C14.841 14.893 14.8683 14.679 14.8683 14.4815C14.8683 13.8888 14.6128 13.4362 14.1017 13.1235C13.8007 12.9342 13.2716 12.7449 12.5143 12.5556L10.776 12.1234C10.2378 11.9917 9.96851 11.7572 9.96851 11.4198C9.96851 11.3539 9.97773 11.284 9.99599 11.2099C10.0507 10.9382 10.2195 10.714 10.5023 10.5371C10.7851 10.36 11.1227 10.2716 11.5151 10.2716C12.2269 10.2716 12.5826 10.5432 12.5826 11.0864C12.5826 11.2017 12.5599 11.3416 12.5143 11.5061H15.2926C15.3656 11.1853 15.4021 10.9136 15.4021 10.6913C15.4021 9.34154 14.2433 8.66667 11.9257 8.66667C10.5389 8.66667 9.41198 8.95061 8.54517 9.51852C7.77878 10.0206 7.29978 10.6667 7.10814 11.4568C7.06244 11.6626 7.03969 11.8559 7.03969 12.037C7.03969 12.9588 7.68755 13.5802 8.98316 13.9013L11.2687 14.469C11.725 14.5843 11.953 14.7942 11.953 15.0987C11.953 15.1728 11.9439 15.251 11.9257 15.3332C11.7615 16.0082 11.1912 16.3456 10.2149 16.3456C9.28426 16.3456 8.81891 16.0206 8.81891 15.3703C8.81891 15.2634 8.83718 15.1275 8.87371 14.963Z" fill="#FFC700"/>
<path fill-rule="evenodd" clip-rule="evenodd" d="M26 10.6667C26 15.5364 22.7227 19.6424 18.2451 20.921C16.3099 22.8247 13.6501 24 10.7145 24C4.79705 24 0 19.2244 0 13.3333C0 8.46429 3.27701 4.35721 7.75513 3.07874C9.68964 1.17591 12.3502 0 15.2855 0C21.203 0 26 4.77563 26 10.6667ZM10.4482 2.66989C10.5365 2.66774 10.6251 2.66667 10.7139 2.66667C10.7599 2.66667 10.8065 2.66696 10.8524 2.66754C16.7063 2.74104 21.429 7.48812 21.429 13.3333C21.429 15.3212 20.8828 17.1821 19.9316 18.7753C22.7569 17.1674 24.6607 14.1378 24.6607 10.6667C24.6607 5.51201 20.4633 1.33333 15.2855 1.33333C13.5155 1.33333 11.8605 1.82125 10.4482 2.66989ZM20.0891 13.3333C20.0891 8.22775 15.9712 4.07966 10.8615 4.00113L10.7745 4.00019L10.7145 4C5.53673 4 1.33931 8.17868 1.33931 13.3333C1.33931 18.488 5.53673 22.6667 10.7145 22.6667C13.3083 22.6667 15.6561 21.618 17.3535 19.9233L17.4159 19.8598C19.0704 18.1762 20.0891 15.8739 20.0891 13.3333Z" fill="#FFC700"/>
</svg>
