<svg width="48" height="48" viewBox="0 0 48 48" fill="none" xmlns="http://www.w3.org/2000/svg">
<g clip-path="url(#clip0)">
<path d="M42.5082 30.8327C42.4024 30.4519 42.6351 29.923 42.8572 29.5423C42.9251 29.4289 42.9993 29.3195 43.0793 29.2144C44.9792 26.3912 45.9955 23.0663 45.9986 19.6634C46.0303 9.91153 37.8015 2 27.6265 2C18.7525 2 11.3486 8.03941 9.614 16.0567C9.3545 17.245 9.2233 18.4577 9.22266 19.674C9.22266 29.4365 17.1342 37.5596 27.3092 37.5596C28.9274 37.5596 31.1063 37.073 32.3015 36.7451C33.4967 36.4173 34.6813 35.9836 34.988 35.8673C35.3024 35.7487 35.6356 35.6878 35.9717 35.6875C36.3383 35.6861 36.7015 35.758 37.0399 35.899L43.037 38.025C43.1685 38.0806 43.3075 38.1163 43.4495 38.1307C43.6739 38.1307 43.8892 38.0416 44.0479 37.8829C44.2065 37.7242 44.2957 37.509 44.2957 37.2846C44.2883 37.1878 44.2706 37.092 44.2428 36.999L42.5082 30.8327Z" stroke="white" stroke-width="4" stroke-miterlimit="10" stroke-linecap="round"/>
<path d="M3.95256 21.4619C2.56533 23.9541 1.89426 26.7813 2.01353 29.6311C2.13281 32.4809 3.03779 35.2421 4.62843 37.6097C4.87275 37.9788 5.01025 38.2644 4.96794 38.4558C4.92564 38.6473 3.70612 44.9998 3.70612 44.9998C3.67679 45.1484 3.68791 45.3022 3.73833 45.4451C3.78876 45.588 3.87662 45.7147 3.99275 45.8121C4.14771 45.9355 4.3404 46.002 4.53852 46.0003C4.6444 46.0006 4.74919 45.979 4.84631 45.9369L10.7916 43.61C11.2008 43.4486 11.6572 43.4563 12.0608 43.6311C14.0641 44.4117 16.2789 44.9003 18.4948 44.9003C21.4682 44.9035 24.3895 44.1193 26.9616 42.6274" stroke="white" stroke-width="4" stroke-miterlimit="10" stroke-linecap="round"/>
</g>
<defs>
<clipPath id="clip0">
<rect width="48" height="47.9998" fill="white"/>
</clipPath>
</defs>
</svg>
