<svg width="37" height="60" viewBox="0 0 37 60" fill="none" xmlns="http://www.w3.org/2000/svg">
<path d="M9.7226 40.9121L14.7755 45.965L10.4088 57.7552C9.90975 59.0652 8.66211 59.8762 7.3521 59.8762C6.97781 59.8762 6.60351 59.8138 6.22922 59.689C4.54492 59.0652 3.67157 57.1937 4.29539 55.5094L9.7226 40.9121Z" fill="white"/>
<path d="M0.305989 27.9977L3.30031 22.2586C4.11128 20.7615 5.29653 19.5138 6.73131 18.6405C13.6557 14.5233 14.529 14.5857 15.4024 14.6481L20.081 14.96C21.5158 15.0223 22.5139 15.3966 27.3173 22.4458C27.5044 22.6953 27.754 22.8824 28.1282 22.9448L33.8674 23.8182C35.4269 24.0677 36.4874 25.5025 36.2379 27.062C35.9883 28.6216 34.5536 29.6821 32.994 29.4325L27.2549 28.5592C25.3834 28.2473 23.6991 27.2492 22.6387 25.6896C22.3891 25.3153 22.202 25.0034 21.9525 24.6915L18.2719 36.3569L23.3872 41.4722C24.1358 42.2208 24.7596 43.2189 25.1339 44.217L29.064 55.6952C29.6878 57.3795 28.7521 59.251 27.0678 59.8124C26.6935 59.9372 26.3816 59.9996 26.0073 59.9996C24.6349 59.9996 23.3872 59.1262 22.8882 57.8162L18.9581 46.338C18.8957 46.2132 18.8334 46.1508 18.771 46.0261L9.66325 36.856C8.35323 35.5459 7.85418 33.7369 8.22847 31.9902L10.2247 23.132C10.0375 23.2567 9.8504 23.3815 9.60087 23.5063C9.03943 23.8182 8.60276 24.3172 8.29085 24.8787L5.29653 30.6178C4.79747 31.5535 3.79937 32.1149 2.80126 32.1149C2.36459 32.1149 1.92791 31.9902 1.49124 31.803C0.118844 31.0545 -0.38021 29.3701 0.305989 27.9977Z" fill="white"/>
<path d="M24.9663 7.6274C25.3428 4.16823 22.8438 1.0588 19.3846 0.682299C15.9255 0.305796 12.816 2.80479 12.4395 6.26396C12.063 9.72313 14.562 12.8326 18.0212 13.2091C21.4804 13.5856 24.5898 11.0866 24.9663 7.6274Z" fill="white"/>
</svg>
