<svg width="57" height="60" viewBox="0 0 57 60" fill="none" xmlns="http://www.w3.org/2000/svg">
<path d="M23.3333 43.3333C24.2538 43.3333 25 42.5871 25 41.6667C25 40.7462 24.2538 40 23.3333 40C22.4129 40 21.6667 40.7462 21.6667 41.6667C21.6667 42.5871 22.4129 43.3333 23.3333 43.3333Z" fill="white"/>
<path d="M35 41.6667C35 42.5871 34.2538 43.3333 33.3333 43.3333C32.4129 43.3333 31.6667 42.5871 31.6667 41.6667C31.6667 40.7462 32.4129 40 33.3333 40C34.2538 40 35 40.7462 35 41.6667Z" fill="white"/>
<path fill-rule="evenodd" clip-rule="evenodd" d="M53.3333 8.06667V1.66667C53.3333 0.733333 52.6 0 51.6667 0H5C4.06667 0 3.33333 0.733333 3.33333 1.66667V8.06667L0.0666666 17.8C0 18 0 18.1333 0 18.3333C0 20.5333 1.4 22.3333 3.33333 23.0667V58.3333C3.33333 59.2667 4.06667 60 5 60H51.6667C52.6 60 53.3333 59.2667 53.3333 58.3333V23.0667C55.2667 22.4 56.6667 20.5333 56.6667 18.3333C56.6667 18.1333 56.6667 18 56.6 17.8L53.3333 8.06667ZM6.66667 3.33333H50V6.66667H6.66667V3.33333ZM6.66667 56.6667V23.0667C7.26667 22.8667 7.86667 22.5333 8.33333 22.0667C8.8 22.4667 9.4 22.8 10 23.0667V56.6667H6.66667ZM13.3333 56.6667V23.0667C13.9333 22.8667 14.5333 22.5333 15 22.0667C15.8667 22.8667 17.0667 23.3333 18.3333 23.3333C19.6 23.3333 20.8 22.8667 21.6667 22.0667C22.5333 22.8667 23.7333 23.3333 25 23.3333C25.6 23.3333 26.1333 23.2 26.6667 23.0667V56.6667H13.3333ZM30 56.6667V23.0667C30.5333 23.2667 31.0667 23.3333 31.6667 23.3333C32.9333 23.3333 34.1333 22.8667 35 22.0667C35.8667 22.8667 37.0667 23.3333 38.3333 23.3333C39.6 23.3333 40.8 22.8667 41.6667 22.0667C42.1333 22.4667 42.7333 22.8 43.3333 23.0667V56.6667H30ZM46.6667 56.6667V23.0667C47.2667 22.8667 47.8667 22.5333 48.3333 22.0667C48.8 22.4667 49.4 22.8 50 23.0667V56.6667H46.6667ZM51.6667 20C50.7333 20 50 19.2667 50 18.3333C50 17.4 49.2667 16.6667 48.3333 16.6667C47.4 16.6667 46.6667 17.4 46.6667 18.3333C46.6667 19.2667 45.9333 20 45 20C44.0667 20 43.3333 19.2667 43.3333 18.3333C43.3333 17.4 42.6 16.6667 41.6667 16.6667C40.7333 16.6667 40 17.4 40 18.3333C40 19.2667 39.2667 20 38.3333 20C37.4 20 36.6667 19.2667 36.6667 18.3333C36.6667 17.4 35.9333 16.6667 35 16.6667C34.0667 16.6667 33.3333 17.4 33.3333 18.3333C33.3333 19.2667 32.6 20 31.6667 20C30.7333 20 30 19.2667 30 18.3333C30 17.4 29.2667 16.6667 28.3333 16.6667C27.4 16.6667 26.6667 17.4 26.6667 18.3333C26.6667 19.2667 25.9333 20 25 20C24.0667 20 23.3333 19.2667 23.3333 18.3333C23.3333 17.4 22.6 16.6667 21.6667 16.6667C20.7333 16.6667 20 17.4 20 18.3333C20 19.2667 19.2667 20 18.3333 20C17.4 20 16.6667 19.2667 16.6667 18.3333C16.6667 17.4 15.9333 16.6667 15 16.6667C14.0667 16.6667 13.3333 17.4 13.3333 18.3333C13.3333 19.2667 12.6 20 11.6667 20C10.7333 20 10 19.2667 10 18.3333C10 17.4 9.26667 16.6667 8.33333 16.6667C7.4 16.6667 6.66667 17.4 6.66667 18.3333C6.66667 19.2667 5.93333 20 5 20C4.13333 20 3.46667 19.4 3.33333 18.5333L6.2 10H50.4667L53.3333 18.5333C53.2 19.4 52.5333 20 51.6667 20Z" fill="white"/>
</svg>
