<svg width="50" height="60" viewBox="0 0 50 60" fill="none" xmlns="http://www.w3.org/2000/svg">
<path fill-rule="evenodd" clip-rule="evenodd" d="M40.4517 0H31.6892C31.3479 0 31.0704 0.2775 31.0704 0.61875V5.64375L30.1904 7.5775L33.0129 6.29H40.4517C40.7929 6.29 41.0704 6.0125 41.0704 5.6725V0.61875C41.0704 0.2775 40.7929 0 40.4517 0ZM33.1804 3.91875C32.7529 3.91875 32.4067 3.5725 32.4067 3.14625C32.4067 2.71875 32.7517 2.3725 33.1804 2.3725C33.6067 2.3725 33.9529 2.71875 33.9529 3.14625C33.9529 3.57125 33.6067 3.91875 33.1804 3.91875ZM36.0704 3.91875C35.6429 3.91875 35.2979 3.5725 35.2979 3.14625C35.2979 2.71875 35.6429 2.3725 36.0704 2.3725C36.4979 2.3725 36.8442 2.71875 36.8442 3.14625C36.8442 3.57125 36.4979 3.91875 36.0704 3.91875ZM38.9604 3.91875C38.5342 3.91875 38.1879 3.5725 38.1879 3.14625C38.1879 2.71875 38.5342 2.3725 38.9604 2.3725C39.3879 2.3725 39.7342 2.71875 39.7342 3.14625C39.7342 3.57125 39.3879 3.91875 38.9604 3.91875Z" fill="white"/>
<path d="M29.2673 44.8369C29.0668 44.9139 28.8518 44.9965 28.6304 45.0925C29.2229 45.9888 29.5791 47.0925 29.5791 48.2925C29.5791 48.7762 29.5216 49.2488 29.4116 49.7038H36.6666C36.5579 49.2488 36.5004 48.7762 36.5004 48.2925C36.5004 47.0925 36.8554 45.9888 37.4491 45.0925C37.2282 44.997 37.0141 44.9148 36.8145 44.8382L36.8132 44.8377C36.6213 44.764 36.4426 44.6954 36.2841 44.625C35.7441 44.3863 35.2841 43.8913 34.9304 43.4037C35.8891 42.6737 36.5241 41.41 36.5241 39.97C36.5241 37.71 34.9629 35.88 33.0391 35.88C31.1154 35.88 29.5554 37.7113 29.5554 39.97C29.5554 41.41 30.1904 42.6737 31.1491 43.4037C30.7941 43.8913 30.3329 44.3863 29.7941 44.625C29.6364 44.6951 29.458 44.7636 29.2673 44.8369Z" fill="white"/>
<path d="M15.8717 58.0263C15.5013 54.4397 13.5036 53.6726 12.1617 53.1572C11.9728 53.0847 11.797 53.0172 11.6405 52.9475C11.1017 52.7088 10.6405 52.215 10.2867 51.7263C11.2455 50.9975 11.8805 49.7325 11.8805 48.2925C11.8805 46.0325 10.3192 44.2025 8.39547 44.2025C6.47047 44.2025 4.91047 46.0338 4.91047 48.2925C4.91047 49.7325 5.54672 50.9975 6.50422 51.7263C6.15047 52.215 5.68922 52.7075 5.15047 52.9475C4.99402 53.0171 4.81833 53.0845 4.6297 53.1569C3.28709 53.6723 1.28952 54.439 0.917969 58.0263H15.8717Z" fill="white"/>
<path d="M21.5799 52.9475C22.1186 52.7075 22.5799 52.215 22.9336 51.7263C21.9749 50.9975 21.3386 49.7325 21.3399 48.2925C21.3399 46.0338 22.8999 44.2025 24.8236 44.2025C26.7486 44.2025 28.3086 46.0325 28.3086 48.2925C28.3086 49.7325 27.6736 50.9975 26.7149 51.7263C27.0674 52.215 27.5299 52.7088 28.0686 52.9475C28.2251 53.0172 28.401 53.0847 28.5898 53.1572C29.9318 53.6726 31.9295 54.4397 32.2999 58.0263H17.3486C17.7202 54.4387 19.7171 53.6722 21.0594 53.1568C21.2479 53.0845 21.4235 53.0171 21.5799 52.9475Z" fill="white"/>
<path d="M38.0057 52.9475C38.5444 52.7075 39.0057 52.215 39.3594 51.7263C38.4007 50.9975 37.7657 49.7325 37.7632 48.2925C37.7632 46.0338 39.3244 44.2025 41.2482 44.2025C43.1719 44.2025 44.7332 46.0325 44.7332 48.2925C44.7332 49.7325 44.0982 50.9975 43.1394 51.7263C43.4932 52.215 43.9544 52.7088 44.4932 52.9475C44.6494 53.017 44.8248 53.0843 45.0131 53.1566C46.3557 53.6719 48.354 54.4389 48.7244 58.0263H33.7744C34.1459 54.4395 36.143 53.6725 37.4847 53.1572C37.6735 53.0847 37.8492 53.0172 38.0057 52.9475Z" fill="white"/>
<path d="M0 58.8725H49.65V60H0V58.8725Z" fill="white"/>
<path d="M12.8392 44.8368C13.0299 44.7634 13.2074 44.6951 13.3659 44.625C13.9059 44.3863 14.3659 43.8913 14.7184 43.4037C13.7597 42.6737 13.1247 41.41 13.1247 39.97C13.1247 37.7113 14.6847 35.88 16.6096 35.88C18.5334 35.88 20.0947 37.71 20.0947 39.97C20.0947 41.41 19.4597 42.6737 18.5009 43.4037C18.8534 43.8913 19.3147 44.3863 19.8547 44.625C20.0124 44.6951 20.1901 44.7633 20.3808 44.8366C20.5813 44.9136 20.7969 44.9965 21.0184 45.0925C20.4259 45.9888 20.0709 47.0925 20.0709 48.2925C20.0709 48.7762 20.1284 49.2488 20.2384 49.7038H12.9834C13.0934 49.2488 13.1509 48.7762 13.1509 48.2925C13.1509 47.0925 12.7947 45.9888 12.2022 45.0925C12.4243 44.9965 12.6391 44.9138 12.8392 44.8368Z" fill="white"/>
<path d="M36.9383 50.5488H29.1371C28.9708 50.9513 28.7596 51.3313 28.5083 51.6775H37.5671C37.3171 51.3313 37.1058 50.9525 36.9383 50.5488Z" fill="white"/>
<path d="M12.7113 50.5488H20.5125C20.6775 50.9525 20.89 51.3313 21.1413 51.6775H12.0825C12.3325 51.3313 12.545 50.9513 12.7113 50.5488Z" fill="white"/>
<path d="M29.0084 15.1839C30.4998 15.7565 32.7203 16.6089 33.1324 20.595H16.5137C16.9258 16.6084 19.1469 15.7562 20.6391 15.1837C20.8486 15.1034 21.0437 15.0285 21.2174 14.9513C21.8162 14.685 22.3287 14.1362 22.7224 13.5938C21.6574 12.7825 20.9512 11.3775 20.9512 9.7775C20.9512 7.26625 22.6849 5.23125 24.8237 5.23125C26.9624 5.23125 28.6962 7.26625 28.6962 9.7775C28.6962 11.3787 27.9899 12.7837 26.9249 13.5938C27.3174 14.1362 27.8312 14.685 28.4299 14.9513C28.6036 15.0286 28.7989 15.1035 29.0084 15.1839Z" fill="white"/>
<path d="M35.4466 21.28H14.2041V22.1913H35.4466V21.28Z" fill="white"/>
<path d="M19.1805 31.6725L15.918 22.9313H33.7305L30.468 31.6725H19.1805Z" fill="white"/>
</svg>
