<svg width="22" height="48" viewBox="0 0 22 48" fill="none" xmlns="http://www.w3.org/2000/svg">
<path d="M21.2425 6.0189C21.2425 9.34305 18.5477 12.0378 15.2236 12.0378C11.8994 12.0378 9.20469 9.34305 9.20469 6.0189C9.20469 2.69475 11.8994 0 15.2236 0C18.5477 0 21.2425 2.69475 21.2425 6.0189Z" fill="white"/>
<path d="M20.8279 36.2316C21.0246 36.2702 21.2115 36.3478 21.3778 36.4596C21.6718 36.6768 21.8767 36.9936 21.9542 37.3508C22.0318 37.708 21.9766 38.0812 21.7991 38.4007C19.7377 41.5456 15.8254 45.5481 12.0786 47.0529C10.6001 47.65 9.02336 47.9663 7.429 47.9858C5.78922 48.0867 4.1615 47.648 2.79444 46.7369C2.0661 46.2622 1.50374 45.5725 1.18552 44.7634C0.867309 43.9544 0.809058 43.0664 1.01887 42.2227C1.1207 41.6978 2.84568 36.7236 4.53137 31.8627C6.08363 27.3865 7.60258 23.0065 7.79013 22.2851C8.13076 21.4674 8.16811 20.5549 7.89546 19.712C7.76889 19.49 7.58079 19.3094 7.35384 19.1919C7.12689 19.0744 6.87079 19.0251 6.61644 19.0499C6.11988 19.0951 1.60571 19.6819 1.60571 19.6819C1.4081 19.6948 1.20991 19.6686 1.02243 19.6048C0.834952 19.5411 0.661868 19.441 0.513059 19.3104C0.36425 19.1797 0.242631 19.021 0.155145 18.8434C0.0676593 18.6657 0.0160197 18.4726 0.00317551 18.275C-0.00966871 18.0774 0.0165332 17.8792 0.0802862 17.6917C0.144039 17.5042 0.244095 17.3312 0.374739 17.1824C0.505383 17.0335 0.664059 16.9119 0.841705 16.8244C1.01935 16.737 1.21249 16.6853 1.41009 16.6725C1.49346 16.6665 3.38446 16.4249 5.71109 16.1276C9.2634 15.6737 13.8312 15.09 14.5313 15.0173C18.7897 14.3401 19.1959 17.154 18.263 20.013C17.631 21.9691 11.8679 39.0628 11.5369 40.0258L10.7394 42.3882C10.7304 42.4269 10.7198 42.4702 10.7083 42.517C10.5862 43.0162 10.3645 43.9222 10.8598 44.0735C11.6211 44.3663 13.394 43.0208 13.9465 42.6015C13.9618 42.5898 13.9762 42.5789 13.9896 42.5688C16.0346 40.9642 17.8165 39.0502 19.2712 36.896C19.3793 36.7273 19.5201 36.5819 19.6852 36.4683C19.8503 36.3548 20.0365 36.2753 20.2327 36.2347C20.4289 36.194 20.6313 36.193 20.8279 36.2316Z" fill="white"/>
</svg>
