<svg width="67" height="67" viewBox="0 0 67 67" fill="none" xmlns="http://www.w3.org/2000/svg">
<g clip-path="url(#clip0)">
<path d="M33.3927 62.3525C25.7377 62.3525 18.3963 59.3116 12.9834 53.8987C7.57048 48.4858 4.52956 41.1444 4.52956 33.4894C4.52956 25.8344 7.57048 18.4929 12.9834 13.0801C18.3963 7.66716 25.7377 4.62624 33.3927 4.62624C41.0477 4.62624 48.3891 7.66716 53.802 13.0801C59.2149 18.4929 62.2558 25.8344 62.2558 33.4894C62.2558 41.1444 59.2149 48.4858 53.802 53.8987C48.3891 59.3116 41.0477 62.3525 33.3927 62.3525ZM33.3927 66.4758C42.1412 66.4758 50.5315 63.0005 56.7176 56.8143C62.9038 50.6282 66.3791 42.2379 66.3791 33.4894C66.3791 24.7408 62.9038 16.3506 56.7176 10.1644C50.5315 3.97828 42.1412 0.50293 33.3927 0.50293C24.6441 0.50293 16.2539 3.97828 10.0678 10.1644C3.8816 16.3506 0.40625 24.7408 0.40625 33.4894C0.40625 42.2379 3.8816 50.6282 10.0678 56.8143C16.2539 63.0005 24.6441 66.4758 33.3927 66.4758Z" fill="white"/>
<path d="M26.2619 21.3479C26.5992 21.1742 26.9778 21.097 27.356 21.1246C27.7343 21.1523 28.0977 21.2837 28.4061 21.5046L42.8376 31.8128C43.1049 32.0035 43.3227 32.2553 43.473 32.5472C43.6233 32.8391 43.7017 33.1627 43.7017 33.491C43.7017 33.8193 43.6233 34.1429 43.473 34.4348C43.3227 34.7267 43.1049 34.9785 42.8376 35.1692L28.4061 45.4775C28.0978 45.6981 27.7346 45.8295 27.3565 45.8571C26.9784 45.8848 26.6 45.8076 26.2629 45.6342C25.9258 45.4607 25.6431 45.1977 25.4458 44.874C25.2485 44.5502 25.1442 44.1784 25.1445 43.7993V23.1827C25.1441 22.8037 25.2482 22.432 25.4454 22.1083C25.6425 21.7846 25.925 21.5215 26.2619 21.3479Z" fill="white"/>
</g>
<defs>
<clipPath id="clip0">
<rect width="65.9729" height="65.9729" fill="white" transform="translate(0.402344 0.501953)"/>
</clipPath>
</defs>
</svg>
