<svg width="24" height="24" viewBox="0 0 24 24" fill="none" xmlns="http://www.w3.org/2000/svg">
<path fill-rule="evenodd" clip-rule="evenodd" d="M11.0974 3.05606C8.96468 3.05606 6.91926 3.90337 5.41116 5.41159C3.90306 6.91981 3.05582 8.96539 3.05582 11.0983C3.05582 13.2313 3.90306 15.2769 5.41116 16.7851C6.91926 18.2933 8.96468 19.1406 11.0974 19.1406C13.2302 19.1406 15.2756 18.2933 16.7837 16.7851C18.2918 15.2769 19.1391 13.2313 19.1391 11.0983C19.1391 8.96539 18.2918 6.91981 16.7837 5.41159C15.2756 3.90337 13.2302 3.05606 11.0974 3.05606ZM3.25037 3.25063C5.33154 1.16929 8.15422 0 11.0974 0C14.0407 0 16.8634 1.16929 18.9445 3.25063C21.0257 5.33197 22.1949 8.15488 22.1949 11.0983C22.1949 13.5259 21.3996 15.8715 19.9533 17.7868L24 21.841L21.8373 24L17.7935 19.9487C15.877 21.399 13.5283 22.1967 11.0974 22.1967C8.15422 22.1967 5.33154 21.0274 3.25037 18.9461C1.16919 16.8647 0 14.0418 0 11.0983C0 8.15488 1.16919 5.33197 3.25037 3.25063Z" fill="white"/>
</svg>
