<svg width="43" height="48" viewBox="0 0 43 48" fill="none" xmlns="http://www.w3.org/2000/svg">
<path d="M40.32 12H32.16V11.04C32.16 4.944 27.216 0 21.12 0C15.024 0 10.08 4.944 10.08 11.04V12H1.92C0.858 12 0 12.858 0 13.92V46.08C0 47.142 0.858 48 1.92 48H40.32C41.382 48 42.24 47.142 42.24 46.08V13.92C42.24 12.858 41.382 12 40.32 12ZM14.4 11.04C14.4 7.326 17.406 4.32 21.12 4.32C24.834 4.32 27.84 7.326 27.84 11.04V12H14.4V11.04ZM37.92 43.68H4.32V16.32H10.08V21.6C10.08 21.864 10.296 22.08 10.56 22.08H13.92C14.184 22.08 14.4 21.864 14.4 21.6V16.32H27.84V21.6C27.84 21.864 28.056 22.08 28.32 22.08H31.68C31.944 22.08 32.16 21.864 32.16 21.6V16.32H37.92V43.68Z" fill="white"/>
</svg>
