<svg width="46" height="48" viewBox="0 0 46 48" fill="none" xmlns="http://www.w3.org/2000/svg">
<path fill-rule="evenodd" clip-rule="evenodd" d="M22.1949 6.11213C17.9294 6.11213 13.8385 7.80675 10.8223 10.8232C7.80612 13.8396 6.11164 17.9308 6.11164 22.1967C6.11164 26.4626 7.80612 30.5537 10.8223 33.5702C13.8385 36.5866 17.9294 38.2812 22.1949 38.2812C26.4604 38.2812 30.5513 36.5866 33.5675 33.5702C36.5837 30.5537 38.2782 26.4626 38.2782 22.1967C38.2782 17.9308 36.5837 13.8396 33.5675 10.8232C30.5513 7.80675 26.4604 6.11213 22.1949 6.11213ZM6.50074 6.50126C10.6631 2.33857 16.3084 0 22.1949 0C28.0813 0 33.7267 2.33857 37.8891 6.50126C42.0514 10.6639 44.3898 16.3098 44.3898 22.1967C44.3898 27.0519 42.7992 31.7431 39.9067 35.5735L48 43.6819L43.6746 48L35.5871 39.8974C31.754 42.7981 27.0567 44.3934 22.1949 44.3934C16.3084 44.3934 10.6631 42.0548 6.50074 37.8921C2.33838 33.7294 0 28.0836 0 22.1967C0 16.3098 2.33839 10.6639 6.50074 6.50126Z" fill="white"/>
</svg>
