<svg width="108" height="26" viewBox="0 0 108 26" fill="none" xmlns="http://www.w3.org/2000/svg">
<rect width="108" height="26" rx="13" fill="white"/>
<path d="M30.686 14.472C30.686 16.656 31.862 18.168 33.752 18.168C35.6 18.168 36.174 16.754 36.174 16.754H36.202C36.202 16.754 36.174 16.95 36.174 17.258V18H37.098V8.158H36.146V11.588C36.146 11.882 36.174 12.12 36.174 12.12H36.146C36.146 12.12 35.558 10.79 33.85 10.79C32.002 10.79 30.686 12.246 30.686 14.472ZM31.666 14.472C31.666 12.694 32.688 11.644 33.934 11.644C35.446 11.644 36.174 13.044 36.174 14.472C36.174 16.474 35.068 17.314 33.892 17.314C32.576 17.314 31.666 16.208 31.666 14.472ZM38.3141 14.444C38.3141 16.572 39.9801 18.168 42.0381 18.168C44.0961 18.168 45.7621 16.572 45.7621 14.444C45.7621 12.358 44.0961 10.79 42.0381 10.79C39.9801 10.79 38.3141 12.358 38.3141 14.444ZM39.2941 14.444C39.2941 12.848 40.5261 11.658 42.0381 11.658C43.5501 11.658 44.7821 12.848 44.7821 14.444C44.7821 16.082 43.5501 17.314 42.0381 17.314C40.5261 17.314 39.2941 16.082 39.2941 14.444ZM46.4911 14.486C46.4911 16.67 48.1011 18.168 50.1871 18.168C51.9791 18.168 52.9311 17.062 52.9311 17.062L52.4971 16.32C52.4971 16.32 51.6711 17.314 50.2431 17.314C48.6891 17.314 47.4711 16.138 47.4711 14.486C47.4711 12.806 48.6751 11.658 50.2151 11.658C51.4891 11.658 52.2731 12.512 52.2731 12.512L52.7631 11.798C52.7631 11.798 51.9091 10.79 50.1871 10.79C48.1151 10.79 46.4911 12.316 46.4911 14.486ZM54.0067 15.438C54.0067 17.272 54.7067 18.168 56.3587 18.168C57.9127 18.168 58.8367 17.076 59.1167 16.39H59.1447C59.1447 16.39 59.1167 16.642 59.1167 16.95V18H60.0407V10.958H59.0887V14.332C59.0887 15.858 58.0947 17.272 56.4847 17.272C55.1267 17.272 54.9587 16.292 54.9587 15.186V10.958H54.0067V15.438ZM61.7752 18H62.7272V14.668C62.7272 14.346 62.7552 14.024 62.8252 13.73C63.1192 12.652 63.9872 11.658 65.1352 11.658C66.4652 11.658 66.6192 12.694 66.6192 13.758V18H67.5712V14.668C67.5712 14.29 67.5992 13.954 67.6972 13.646C67.9632 12.61 68.8452 11.658 69.9232 11.658C71.2112 11.658 71.4492 12.61 71.4492 13.758V18H72.4012V13.52C72.4012 11.784 71.7712 10.79 70.0632 10.79C68.8732 10.79 67.8512 11.602 67.4732 12.554H67.4452C67.2352 11.392 66.5632 10.79 65.2612 10.79C64.1692 10.79 63.0492 11.616 62.7132 12.568H62.6852C62.6852 12.568 62.7132 12.316 62.7132 12.008V10.958H61.7752V18ZM73.5494 14.486C73.5494 16.656 75.1314 18.168 77.2314 18.168C78.8134 18.168 79.8354 17.188 79.8354 17.188L79.4014 16.46C79.4014 16.46 78.5474 17.314 77.2594 17.314C75.8034 17.314 74.5714 16.334 74.5294 14.528H79.9334C79.9334 14.528 79.9614 14.206 79.9614 14.038C79.9614 12.288 78.9674 10.79 77.0214 10.79C75.1174 10.79 73.5494 12.176 73.5494 14.486ZM74.5714 13.744C74.7954 12.33 75.8174 11.588 76.9934 11.588C78.0434 11.588 78.9394 12.274 78.9954 13.744H74.5714ZM81.2177 18H82.1697V14.626C82.1697 14.29 82.1977 13.968 82.2817 13.674C82.6037 12.512 83.6397 11.686 84.8437 11.686C86.2017 11.686 86.3697 12.666 86.3697 13.772V18H87.3217V13.52C87.3217 11.784 86.7057 10.79 84.9697 10.79C83.3037 10.79 82.4077 11.924 82.1557 12.568H82.1277C82.1277 12.568 82.1557 12.316 82.1557 12.008V10.958H81.2177V18ZM89.2225 15.438C89.2225 17.79 90.8605 18.056 91.6725 18.056C91.9245 18.056 92.0785 18.028 92.0785 18.028V17.174C92.0785 17.174 91.9525 17.202 91.7565 17.202C91.2245 17.202 90.1745 16.992 90.1745 15.34V11.84H91.9385V11.042H90.1745V9.012H89.2365V11.042H88.2985V11.84H89.2225V15.438ZM92.568 14.444C92.568 16.572 94.234 18.168 96.292 18.168C98.35 18.168 100.016 16.572 100.016 14.444C100.016 12.358 98.35 10.79 96.292 10.79C94.234 10.79 92.568 12.358 92.568 14.444ZM93.548 14.444C93.548 12.848 94.78 11.658 96.292 11.658C97.804 11.658 99.036 12.848 99.036 14.444C99.036 16.082 97.804 17.314 96.292 17.314C94.78 17.314 93.548 16.082 93.548 14.444Z" fill="#3E3E3E"/>
<path d="M24 14V13H21V18H22V16H23.5V15H22V14H24Z" fill="#1898C9"/>
<path d="M18.5 18H16.5V13H18.5C18.8977 13.0004 19.279 13.1586 19.5602 13.4398C19.8414 13.721 19.9996 14.1023 20 14.5V16.5C19.9996 16.8977 19.8414 17.279 19.5602 17.5602C19.279 17.8414 18.8977 17.9996 18.5 18ZM17.5 17H18.5C18.6326 16.9999 18.7597 16.9471 18.8534 16.8534C18.9471 16.7597 18.9999 16.6326 19 16.5V14.5C18.9999 14.3674 18.9471 14.2403 18.8534 14.1466C18.7597 14.0529 18.6326 14.0001 18.5 14H17.5V17Z" fill="#1898C9"/>
<path d="M14.5 13H12V18H13V16.5H14.5C14.7651 16.4996 15.0192 16.3941 15.2067 16.2067C15.3941 16.0192 15.4996 15.7651 15.5 15.5V14C15.4997 13.7349 15.3943 13.4807 15.2068 13.2932C15.0193 13.1057 14.7651 13.0003 14.5 13ZM13 15.5V14H14.5L14.5005 15.5H13Z" fill="#1898C9"/>
<path d="M20 12.0002V10.0002C20.0018 9.93446 19.9893 9.86914 19.9634 9.80872C19.9375 9.7483 19.8988 9.69421 19.85 9.65017L16.35 6.15017C16.306 6.10134 16.2519 6.06265 16.1915 6.03675C16.131 6.01085 16.0657 5.99837 16 6.00017H11C10.735 6.00096 10.4811 6.10657 10.2938 6.29394C10.1064 6.4813 10.0008 6.7352 10 7.00017V19.0002C10 19.2654 10.1054 19.5197 10.2929 19.7073C10.4804 19.8948 10.7348 20.0002 11 20.0002H19V19.0002H11V7.00017H15V10.0002C15.0008 10.2651 15.1064 10.519 15.2938 10.7064C15.4811 10.8938 15.735 10.9994 16 11.0002H19V12.0002H20ZM16 10.0002V7.20017L18.8 10.0002H16Z" fill="#1898C9"/>
</svg>
