<svg width="48" height="48" viewBox="0 0 48 48" fill="none" xmlns="http://www.w3.org/2000/svg">
<path d="M35.778 0.141065C36.1157 0.280619 36.4043 0.517201 36.6074 0.820864C36.8105 1.12453 36.919 1.48162 36.919 1.84694V11.0779H46.1504C46.5161 11.0772 46.8737 11.1852 47.1779 11.388C47.4821 11.5908 47.7193 11.8794 47.8593 12.2171C47.9993 12.5549 48.0359 12.9266 47.9643 13.2852C47.8928 13.6437 47.7165 13.973 47.4576 14.2312L40.0725 21.6159C39.9007 21.7873 39.6968 21.9231 39.4725 22.0156C39.2482 22.1081 39.0079 22.1555 38.7653 22.155H28.452L25.7195 24.8911C25.8655 25.4385 25.8837 26.0121 25.7728 26.5677C25.6618 27.1232 25.4246 27.6458 25.0795 28.0951C24.7344 28.5444 24.2906 28.9084 23.7824 29.1589C23.2743 29.4094 22.7153 29.5397 22.1488 29.5398C21.1695 29.5398 20.2302 29.1508 19.5377 28.4583C18.8453 27.7659 18.4562 26.8267 18.4562 25.8474L18.4599 25.6776C18.4852 25.126 18.6339 24.5871 18.8951 24.1007C19.1562 23.6142 19.5231 23.1924 19.9688 22.8665C20.4145 22.5406 20.9277 22.3187 21.4704 22.2173C22.0132 22.1159 22.5718 22.1375 23.1052 22.2806L25.8413 19.5445V9.23171C25.8409 8.9891 25.8883 8.74878 25.9808 8.5245C26.0733 8.30022 26.2091 8.09637 26.3805 7.9246L33.7656 0.539843C34.024 0.281811 34.3531 0.106199 34.7113 0.0352165C35.0695 -0.0357658 35.4407 0.00106993 35.778 0.141065ZM38.0009 18.4627L41.6935 14.7703H35.0727C34.5831 14.7703 34.1135 14.5758 33.7672 14.2295C33.421 13.8833 33.2265 13.4137 33.2265 12.9241V6.30365L29.5339 9.99603V18.4627H38.0009ZM44.101 22.8049C44.7381 27.4024 43.9151 32.0839 41.7481 36.1885C39.5811 40.2932 36.1796 43.6135 32.0238 45.6809C27.868 47.7483 23.1678 48.4583 18.5867 47.7107C14.0056 46.9631 9.77505 44.7956 6.49223 41.5142C3.20942 38.2328 1.04017 34.0033 0.290721 29.4228C-0.458732 24.8422 0.249465 20.1419 2.31534 15.9855C4.38121 11.8291 7.70041 8.42647 11.8044 6.25797C15.9083 4.08947 20.5897 3.26464 25.1878 3.89991L23.7735 5.31409C23.1882 5.89943 22.7415 6.60852 22.4663 7.38921L22.1488 7.38552C18.4838 7.38606 14.9019 8.47732 11.8592 10.5203C8.81647 12.5633 6.4507 15.4656 5.06311 18.8577C3.67553 22.2497 3.32892 25.9779 4.06743 29.5675C4.80594 33.1572 6.59615 36.4458 9.21008 39.0147C11.824 41.5835 15.1434 43.3163 18.7455 43.9924C22.3476 44.6685 26.0694 44.2573 29.437 42.8112C32.8046 41.365 35.6656 38.9493 37.6556 35.8718C39.6456 32.7943 40.6746 29.1942 40.6116 25.5299C41.3893 25.2548 42.0958 24.8095 42.6794 24.2265L44.0974 22.8049H44.101ZM22.1488 12.9241C19.5927 12.9241 17.0939 13.682 14.9686 15.1021C12.8433 16.5221 11.1868 18.5404 10.2086 20.9019C9.23042 23.2633 8.97448 25.8618 9.47316 28.3686C9.97183 30.8755 11.2027 33.1782 13.0102 34.9856C14.8176 36.7929 17.1204 38.0238 19.6274 38.5224C22.1344 39.0211 24.733 38.7652 27.0946 37.787C29.4561 36.8089 31.4746 35.1525 32.8947 33.0272C34.3148 30.902 35.0727 28.4034 35.0727 25.8474H31.3802C31.3802 27.6731 30.8388 29.4578 29.8244 30.9759C28.81 32.4939 27.3683 33.677 25.6815 34.3757C23.9947 35.0744 22.1385 35.2572 20.3478 34.901C18.5571 34.5448 16.9122 33.6657 15.6212 32.3747C14.3302 31.0837 13.451 29.4389 13.0948 27.6483C12.7386 25.8577 12.9214 24.0016 13.6201 22.3149C14.3188 20.6281 15.502 19.1865 17.0201 18.1722C18.5382 17.1579 20.323 16.6165 22.1488 16.6165V12.9241Z" fill="white"/>
</svg>
