<svg width="48" height="60" viewBox="0 0 48 60" fill="none" xmlns="http://www.w3.org/2000/svg">
<path d="M5.13306 0C4.31486 0.0907867 3.58833 0.738501 3.40463 1.54093C3.04791 3.05806 1.64899 5.75343 0.739104 8.47514C0.284162 9.836 -0.0650369 11.2387 0.0102485 12.7231C0.0855345 14.2075 0.749074 15.8544 2.11352 16.9087C2.19915 16.9713 2.28977 17.027 2.38423 17.0752C2.69911 17.245 3.02139 17.3973 3.34216 17.5125V35.3166H2.00939C0.962673 35.3167 0.0103531 36.2689 0.0102485 37.3156C0.0102465 43.1473 0.0102485 49.0105 0.0102485 54.8281C0.10287 55.8109 1.0223 56.6441 2.00939 56.6398H3.34216V57.9725C3.32722 59.0286 4.28502 60 5.3413 60C6.39758 60 7.35539 59.0286 7.34045 57.9725V56.6398H40.6596V57.9725C40.6446 59.0286 41.6024 60 42.6587 60C43.715 60 44.6728 59.0286 44.6578 57.9725V56.6398H45.9906C47.0373 56.6397 47.9896 55.6874 47.9898 54.6407V37.3156C47.9896 36.2689 47.0373 35.3167 45.9906 35.3166H44.6578V17.5125C44.9786 17.3973 45.3009 17.245 45.6158 17.0752C45.7102 17.027 45.8009 16.9712 45.8865 16.9087C47.2509 15.8544 47.9145 14.2075 47.9898 12.7231C48.065 11.2387 47.7158 9.836 47.2609 8.47514C46.351 5.75343 44.9521 3.05806 44.5954 1.54093C44.3914 0.675094 43.5483 0.00419333 42.6587 0C29.5745 3.33333e-05 16.3437 1.33333e-05 5.13306 0ZM6.73654 3.99809C18.2455 3.99811 29.7545 3.99812 41.2635 3.99809C41.9471 5.97781 42.8534 7.96063 43.45 9.74536C43.8262 10.8707 44.0245 11.8641 43.9915 12.5149C43.9632 13.0716 43.8445 13.3299 43.5541 13.5977C42.2681 14.24 41.5173 14.0578 40.4097 13.2645C39.253 12.4361 38.0204 10.7961 37.0986 9.05819C36.7005 8.31412 35.7938 7.88016 34.9646 8.03678C34.1353 8.19341 33.4494 8.9282 33.3502 9.7662C32.9962 13.039 31.0616 14.0398 29.3935 13.9934C27.4281 13.9386 25.9701 12.2546 25.9991 10.6824C25.999 10.6612 25.9995 10.6412 25.9991 10.62C25.9845 9.58268 25.0374 8.64901 24 8.64901C22.9626 8.64901 22.0155 9.58268 22.0009 10.62C22.0005 10.6412 22.0011 10.6612 22.0009 10.6824C22.0299 12.2546 20.5719 13.9387 18.6065 13.9934C16.9384 14.0398 15.0038 13.039 14.6498 9.7662C14.5506 8.9282 13.8647 8.19341 13.0354 8.03678C12.2062 7.88016 11.2995 8.31412 10.9014 9.05819C9.9796 10.7961 8.74702 12.4361 7.59034 13.2645C6.48269 14.0578 5.7319 14.24 4.44585 13.5977C4.15555 13.3299 4.03678 13.0716 4.00854 12.5149C3.97553 11.8641 4.17377 10.8707 4.54998 9.74536C5.14662 7.96063 6.05291 5.97781 6.73654 3.99809ZM12.2134 14.2641C13.771 16.6516 16.2396 18.0608 18.7314 17.9915C20.8304 17.933 22.6808 17.0072 24 15.6176C25.3192 17.0072 27.1696 17.933 29.2686 17.9915C31.7604 18.0608 34.229 16.6516 35.7866 14.2641C36.4631 15.0917 37.1993 15.8841 38.0773 16.513C38.8317 17.0532 39.7094 17.4693 40.6596 17.6999V35.3166H7.34045V17.6999C8.29062 17.4693 9.16832 17.0532 9.92268 16.513C10.8008 15.8841 11.5369 15.0917 12.2134 14.2641ZM4.00854 39.3147H43.9915V40.6474C34.8206 40.6474 25.6172 40.6474 16.4616 40.6474C15.4147 40.702 14.5117 41.7037 14.5662 42.7505C14.6207 43.7974 15.6229 44.7002 16.6698 44.6454H43.9915V45.3118C31.7103 45.3118 19.3983 45.3118 7.13221 45.3118C6.08533 45.3664 5.18231 46.3682 5.23684 47.415C5.29136 48.4618 6.29359 49.3646 7.34045 49.3099H43.9915V52.6417H4.00854V39.3147ZM7.13221 40.6474C6.08533 40.702 5.18231 41.7037 5.23684 42.7505C5.29136 43.7974 6.29359 44.7002 7.34045 44.6454H10.006C11.0622 44.6601 12.0336 43.7027 12.0336 42.6464C12.0336 41.5902 11.0622 40.6324 10.006 40.6474C9.05869 40.6472 8.06228 40.6474 7.13221 40.6474Z" fill="white"/>
</svg>
