<svg width="58" height="48" viewBox="0 0 58 48" fill="none" xmlns="http://www.w3.org/2000/svg">
<path fill-rule="evenodd" clip-rule="evenodd" d="M9.68421 12.1053C9.68421 5.43042 15.1146 0 21.7895 0C28.4643 0 33.8947 5.43042 33.8947 12.1053C33.8947 12.9396 33.8099 13.7545 33.6484 14.5418C32.5177 20.0529 27.63 24.2105 21.7895 24.2105C15.1146 24.2105 9.68421 18.7801 9.68421 12.1053ZM14.5265 12.1522C14.5518 16.1351 17.8007 19.3684 21.7895 19.3684C25.7939 19.3684 29.0526 16.1097 29.0526 12.1053C29.0526 8.10084 25.7939 4.8421 21.7895 4.8421C17.7851 4.8421 14.5263 8.10084 14.5263 12.1053C14.5263 12.1209 14.5264 12.1365 14.5265 12.1522Z" fill="white"/>
<path d="M28.3616 26.7193C36.8953 27.5889 43.5789 34.82 43.5789 43.5789V46H38.7368V43.5789C38.7368 36.9041 33.3064 31.4737 26.6316 31.4737H16.9474C10.2725 31.4737 4.84211 36.9041 4.84211 43.5789V46H0V43.5789C0 34.2361 7.60211 26.6316 16.9474 26.6316H26.6316C27.2155 26.6316 27.7926 26.6613 28.3616 26.7193Z" fill="white"/>
<path d="M39.4286 29.9605H46C50.5294 29.9605 54.2143 33.8071 54.2143 38.5351V40.25H57.5V38.5351C57.5 31.9172 52.3398 26.5307 46 26.5307L37.2542 26.5386C35.3214 26.5307 37.7857 29.9605 39.4286 29.9605Z" fill="white"/>
<path fill-rule="evenodd" clip-rule="evenodd" d="M34.5 16.2412C34.5 11.5132 38.1849 7.66667 42.7143 7.66667C47.2436 7.66667 50.9286 11.5132 50.9286 16.2412C50.9286 20.9692 47.2436 24.8158 42.7143 24.8158C38.1849 24.8158 34.5 20.9692 34.5 16.2412ZM37.7857 16.2412C37.7857 19.0777 39.997 21.386 42.7143 21.386C45.4316 21.386 47.6429 19.0777 47.6429 16.2412C47.6429 13.4048 45.4316 11.0965 42.7143 11.0965C39.997 11.0965 37.7857 13.4048 37.7857 16.2412Z" fill="white"/>
<path fill-rule="evenodd" clip-rule="evenodd" d="M34.1167 16.2412C34.1167 11.3172 37.9579 7.28333 42.7143 7.28333C47.4707 7.28333 51.3119 11.3172 51.3119 16.2412C51.3119 21.1653 47.4707 25.1991 42.7143 25.1991C37.9579 25.1991 34.1167 21.1653 34.1167 16.2412ZM42.7143 8.05C38.412 8.05 34.8833 11.7092 34.8833 16.2412C34.8833 20.7732 38.412 24.4325 42.7143 24.4325C47.0166 24.4325 50.5452 20.7732 50.5452 16.2412C50.5452 11.7092 47.0166 8.05 42.7143 8.05ZM42.7143 11.4798C40.224 11.4798 38.169 13.6008 38.169 16.2412C38.169 18.8817 40.224 21.0026 42.7143 21.0026C45.2045 21.0026 47.2595 18.8817 47.2595 16.2412C47.2595 13.6008 45.2045 11.4798 42.7143 11.4798ZM37.4024 16.2412C37.4024 13.2087 39.7699 10.7132 42.7143 10.7132C45.6586 10.7132 48.0262 13.2087 48.0262 16.2412C48.0262 19.2737 45.6586 21.7693 42.7143 21.7693C39.7699 21.7693 37.4024 19.2737 37.4024 16.2412ZM37.2546 26.1553L45.9997 26.1474C52.5665 26.1474 57.8833 31.7212 57.8833 38.5351V40.6333H53.8309V38.5351C53.8309 34.0031 50.3023 30.3439 46 30.3439H39.4286C38.8969 30.3439 38.3535 30.0735 37.8951 29.7322C37.4272 29.384 36.996 28.9238 36.6831 28.4615C36.3817 28.0164 36.1435 27.5009 36.1646 27.0519C36.176 26.8093 36.2658 26.563 36.4835 26.386C36.6912 26.217 36.9633 26.1543 37.2546 26.1553ZM37.2546 26.1553V26.1553ZM46 26.914L37.2546 26.922L37.2526 26.922C37.0612 26.9212 36.9879 26.9639 36.9672 26.9808C36.956 26.9899 36.9341 27.0102 36.9304 27.088C36.9214 27.2798 37.0395 27.6204 37.3179 28.0317C37.5848 28.4259 37.957 28.8226 38.3528 29.1172C38.7581 29.4189 39.1388 29.5772 39.4286 29.5772H46C50.7564 29.5772 54.5976 33.611 54.5976 38.5351V39.8667H57.1167V38.5351C57.1167 32.1134 52.1126 26.9142 46 26.914V26.914Z" fill="white"/>
</svg>
