<svg width="74" height="26" viewBox="0 0 74 26" fill="none" xmlns="http://www.w3.org/2000/svg">
<rect width="74" height="26" rx="13" fill="white"/>
<path d="M14.9921 19.1233C13.3649 19.1233 11.8044 18.4769 10.6539 17.3264C9.5033 16.1758 8.85692 14.6153 8.85692 12.9882C8.85692 11.361 9.5033 9.80052 10.6539 8.64996C11.8044 7.49939 13.3649 6.85301 14.9921 6.85301C16.6192 6.85301 18.1797 7.49939 19.3303 8.64996C20.4808 9.80052 21.1272 11.361 21.1272 12.9882C21.1272 14.6153 20.4808 16.1758 19.3303 17.3264C18.1797 18.4769 16.6192 19.1233 14.9921 19.1233ZM14.9921 19.9998C16.8517 19.9998 18.6351 19.2611 19.95 17.9461C21.265 16.6312 22.0037 14.8478 22.0037 12.9882C22.0037 11.1286 21.265 9.34514 19.95 8.03021C18.6351 6.71528 16.8517 5.97656 14.9921 5.97656C13.1325 5.97656 11.3491 6.71528 10.0341 8.03021C8.71919 9.34514 7.98047 11.1286 7.98047 12.9882C7.98047 14.8478 8.71919 16.6312 10.0341 17.9461C11.3491 19.2611 13.1325 19.9998 14.9921 19.9998Z" fill="#0C74BB"/>
<path d="M13.4758 10.408C13.5475 10.3711 13.628 10.3547 13.7084 10.3605C13.7888 10.3664 13.866 10.3944 13.9316 10.4413L16.9991 12.6324C17.0559 12.673 17.1022 12.7265 17.1342 12.7885C17.1661 12.8506 17.1828 12.9194 17.1828 12.9891C17.1828 13.0589 17.1661 13.1277 17.1342 13.1898C17.1022 13.2518 17.0559 13.3053 16.9991 13.3459L13.9316 15.537C13.866 15.5839 13.7888 15.6118 13.7085 15.6177C13.6281 15.6236 13.5477 15.6072 13.476 15.5703C13.4044 15.5334 13.3443 15.4775 13.3023 15.4087C13.2604 15.3399 13.2382 15.2609 13.2383 15.1803V10.798C13.2382 10.7175 13.2603 10.6384 13.3022 10.5696C13.3441 10.5008 13.4042 10.4449 13.4758 10.408Z" fill="#0C74BB"/>
<path d="M33.822 18H34.83L38.484 8.158H37.448L34.718 15.634C34.536 16.138 34.34 16.908 34.34 16.908H34.312C34.312 16.908 34.116 16.138 33.934 15.634L31.204 8.158H30.168L33.822 18ZM39.2143 9.348H40.2083V8.158H39.2143V9.348ZM39.2423 18H40.1943V10.958H39.2423V18ZM41.4742 14.472C41.4742 16.656 42.6502 18.168 44.5402 18.168C46.3882 18.168 46.9622 16.754 46.9622 16.754H46.9902C46.9902 16.754 46.9622 16.95 46.9622 17.258V18H47.8862V8.158H46.9342V11.588C46.9342 11.882 46.9622 12.12 46.9622 12.12H46.9342C46.9342 12.12 46.3462 10.79 44.6382 10.79C42.7902 10.79 41.4742 12.246 41.4742 14.472ZM42.4542 14.472C42.4542 12.694 43.4762 11.644 44.7222 11.644C46.2342 11.644 46.9622 13.044 46.9622 14.472C46.9622 16.474 45.8562 17.314 44.6802 17.314C43.3642 17.314 42.4542 16.208 42.4542 14.472ZM49.1303 14.486C49.1303 16.656 50.7123 18.168 52.8123 18.168C54.3943 18.168 55.4163 17.188 55.4163 17.188L54.9823 16.46C54.9823 16.46 54.1283 17.314 52.8403 17.314C51.3843 17.314 50.1523 16.334 50.1103 14.528H55.5143C55.5143 14.528 55.5423 14.206 55.5423 14.038C55.5423 12.288 54.5483 10.79 52.6023 10.79C50.6983 10.79 49.1303 12.176 49.1303 14.486ZM50.1523 13.744C50.3763 12.33 51.3983 11.588 52.5743 11.588C53.6243 11.588 54.5203 12.274 54.5763 13.744H50.1523ZM56.2806 14.444C56.2806 16.572 57.9466 18.168 60.0046 18.168C62.0626 18.168 63.7286 16.572 63.7286 14.444C63.7286 12.358 62.0626 10.79 60.0046 10.79C57.9466 10.79 56.2806 12.358 56.2806 14.444ZM57.2606 14.444C57.2606 12.848 58.4926 11.658 60.0046 11.658C61.5166 11.658 62.7486 12.848 62.7486 14.444C62.7486 16.082 61.5166 17.314 60.0046 17.314C58.4926 17.314 57.2606 16.082 57.2606 14.444Z" fill="#3E3E3E"/>
</svg>
