<svg width="111" height="26" viewBox="0 0 111 26" fill="none" xmlns="http://www.w3.org/2000/svg">
<rect width="111" height="26" rx="13" fill="white"/>
<path d="M31.428 18H36.958V17.132H32.394V8.158H31.428V18ZM37.8061 9.348H38.8001V8.158H37.8061V9.348ZM37.8341 18H38.7861V10.958H37.8341V18ZM40.528 18H41.48V14.626C41.48 14.29 41.508 13.968 41.592 13.674C41.914 12.512 42.95 11.686 44.154 11.686C45.512 11.686 45.68 12.666 45.68 13.772V18H46.632V13.52C46.632 11.784 46.016 10.79 44.28 10.79C42.614 10.79 41.718 11.924 41.466 12.568H41.438C41.438 12.568 41.466 12.316 41.466 12.008V10.958H40.528V18ZM48.2668 18H49.2188V14.472H50.3528L52.7048 18H53.8388L51.1508 14.052V14.024L53.6008 10.958H52.4528L50.3388 13.646H49.2188V8.158H48.2668V18ZM57.4439 14.486C57.4439 16.656 59.0259 18.168 61.1259 18.168C62.7079 18.168 63.7299 17.188 63.7299 17.188L63.2959 16.46C63.2959 16.46 62.4419 17.314 61.1539 17.314C59.6979 17.314 58.4659 16.334 58.4239 14.528H63.8279C63.8279 14.528 63.8559 14.206 63.8559 14.038C63.8559 12.288 62.8619 10.79 60.9159 10.79C59.0119 10.79 57.4439 12.176 57.4439 14.486ZM58.4659 13.744C58.6899 12.33 59.7119 11.588 60.8879 11.588C61.9379 11.588 62.8339 12.274 62.8899 13.744H58.4659ZM67.3942 14.962H67.4222C67.4222 14.962 67.5342 15.172 67.6602 15.354L69.3682 18H70.4882L68.0102 14.332L70.2782 10.958H69.1582L67.6462 13.324C67.5342 13.506 67.4082 13.73 67.4082 13.73H67.3942C67.3942 13.73 67.2682 13.506 67.1562 13.324L65.6442 10.958H64.5242L66.7922 14.332L64.3142 18H65.4342L67.1422 15.354C67.2682 15.172 67.3802 14.962 67.3802 14.962H67.3942ZM71.6952 15.438C71.6952 17.79 73.3332 18.056 74.1452 18.056C74.3972 18.056 74.5512 18.028 74.5512 18.028V17.174C74.5512 17.174 74.4252 17.202 74.2292 17.202C73.6972 17.202 72.6472 16.992 72.6472 15.34V11.84H74.4112V11.042H72.6472V9.012H71.7092V11.042H70.7712V11.84H71.6952V15.438ZM75.0686 14.486C75.0686 16.656 76.6506 18.168 78.7506 18.168C80.3326 18.168 81.3546 17.188 81.3546 17.188L80.9206 16.46C80.9206 16.46 80.0666 17.314 78.7786 17.314C77.3226 17.314 76.0906 16.334 76.0486 14.528H81.4526C81.4526 14.528 81.4806 14.206 81.4806 14.038C81.4806 12.288 80.4866 10.79 78.5406 10.79C76.6366 10.79 75.0686 12.176 75.0686 14.486ZM76.0906 13.744C76.3146 12.33 77.3366 11.588 78.5126 11.588C79.5626 11.588 80.4586 12.274 80.5146 13.744H76.0906ZM82.7369 18H83.6889V15.032C83.6889 14.584 83.7449 14.108 83.8849 13.66C84.1929 12.624 84.9349 11.84 85.9289 11.84C86.1109 11.84 86.2789 11.868 86.2789 11.868V10.93C86.2789 10.93 86.0969 10.888 85.9009 10.888C84.7949 10.888 84.0109 11.7 83.6749 12.764H83.6469C83.6469 12.764 83.6749 12.512 83.6749 12.204V10.958H82.7369V18ZM87.1671 18H88.1191V14.626C88.1191 14.29 88.1471 13.968 88.2311 13.674C88.5531 12.512 89.5891 11.686 90.7931 11.686C92.1511 11.686 92.3191 12.666 92.3191 13.772V18H93.2711V13.52C93.2711 11.784 92.6551 10.79 90.9191 10.79C89.2531 10.79 88.3571 11.924 88.1051 12.568H88.0771C88.0771 12.568 88.1051 12.316 88.1051 12.008V10.958H87.1671V18ZM94.388 14.444C94.388 16.572 96.054 18.168 98.112 18.168C100.17 18.168 101.836 16.572 101.836 14.444C101.836 12.358 100.17 10.79 98.112 10.79C96.054 10.79 94.388 12.358 94.388 14.444ZM95.368 14.444C95.368 12.848 96.6 11.658 98.112 11.658C99.624 11.658 100.856 12.848 100.856 14.444C100.856 16.082 99.624 17.314 98.112 17.314C96.6 17.314 95.368 16.082 95.368 14.444Z" fill="#3E3E3E"/>
<path d="M18.0295 11.9706C17.4835 11.4248 16.743 11.1182 15.9709 11.1182C15.1988 11.1182 14.4583 11.4248 13.9122 11.9706L11.8529 14.0293C11.3068 14.5754 11 15.316 11 16.0883C11 16.8606 11.3068 17.6012 11.8529 18.1473C12.3989 18.6934 13.1396 19.0002 13.9119 19.0002C14.6841 19.0002 15.4248 18.6934 15.9709 18.1473L17.0002 17.118" stroke="#1898C9" stroke-width="1.2" stroke-linecap="round" stroke-linejoin="round"/>
<path d="M15.9688 14.0295C16.5148 14.5754 17.2553 14.882 18.0274 14.882C18.7995 14.882 19.54 14.5754 20.0861 14.0295L22.1454 11.9709C22.6915 11.4248 22.9983 10.6841 22.9983 9.91187C22.9983 9.13959 22.6915 8.39895 22.1454 7.85287C21.5993 7.30678 20.8587 7 20.0864 7C19.3141 7 18.5735 7.30678 18.0274 7.85287L16.9981 8.8822" stroke="#1898C9" stroke-width="1.2" stroke-linecap="round" stroke-linejoin="round"/>
</svg>
